ply
format ascii 1.0
comment Created by Blender 3.0.1 - www.blender.org
element vertex 8
property float x
property float y
property float z
property uchar red
property uchar green
property uchar blue
property uchar alpha
element face 12
property list uchar uint vertex_indices
end_header
-1.000000 1.000000 -1.000000 23 255 23 255
1.000000 1.000000 1.000000 0 0 0 255
1.000000 1.000000 -1.000000 18 19 255 255
-1.000000 -1.000000 1.000000 0 2 255 255
1.000000 -1.000000 1.000000 4 255 4 255
-1.000000 1.000000 1.000000 255 16 18 255
-1.000000 -1.000000 -1.000000 0 0 0 255
1.000000 -1.000000 -1.000000 255 96 96 255
3 0 1 2
3 1 3 4
3 5 6 3
3 7 3 6
3 2 4 7
3 0 7 6
3 0 5 1
3 1 5 3
3 5 0 6
3 7 4 3
3 2 1 4
3 0 2 7
