ply
format ascii 1.0
comment Created in Blender version 4.1.0
element vertex 49
property float x
property float y
property float z
property float nx
property float ny
property float nz
property uchar red
property uchar green
property uchar blue
property uchar alpha
property float s
property float t
element face 58
property list uchar uint vertex_indices
end_header
1 1.3174642 -1 0.7658713 0.42062813 -0.48632622 122 80 254 255 0.625 0.5
0.7182296 -0.4007654 -1.1482106 0.22483535 -0.2575343 -0.93974733 122 80 254 255 0.375 0.5
0.7182296 1.0356938 -1.5422587 -0.09304737 0.7664223 -0.63556194 122 80 254 255 0.625 0.5
-1 1.3174642 -1 -0.76954406 0.45975408 -0.44320208 122 80 254 255 0.875 0.5
-0.84174055 1.3684821 0.5427133 -0.31333297 0.90438825 0.28966242 122 80 254 255 0.8552176 0.7302176
-0.6768848 1.6469189 -0.40993613 -0.3712031 0.9181665 0.1384867 122 80 254 255 0.8552176 0.625
-1.1626018 -0.44063786 1 -0.7352635 -0.6548808 0.17469552 122 80 254 255 0.375 0
-0.43992853 0.75739276 3 -0.049061198 0.3388074 0.9395758 122 80 254 255 0.625 0
-1.1626018 1.0755663 1 -0.7741893 0.5796073 0.2543353 122 80 254 255 0.625 0
0.84174055 1.3684821 0.5427133 0.24938701 0.9110256 0.32838774 122 80 254 255 0.6447824 0.7302176
0.6768848 1.6469189 -0.40993613 0.2055262 0.965803 0.15806162 122 80 254 255 0.6447824 0.625
0.43992853 -0.12246433 3 0.04906107 -0.3388074 0.9395758 122 80 254 255 0.375 0.75
-0.43992853 -0.12246433 0.6341394 0.5773495 0.57731926 0.57738215 172 172 172 255 0.125 0.75
-0.43992853 -0.12246433 3 -0.049108047 -0.3387539 0.93959254 122 80 254 255 0.125 0.75
-1.1626018 -0.44063786 1 -0.7352635 -0.6548808 0.17469552 122 80 254 255 0.125 0.75
1.1626018 1.0755663 1 0.77470493 0.57491475 0.26325905 122 80 254 255 0.625 0.75
-0.43992853 0.75739276 3 -0.049061198 0.3388074 0.9395758 122 80 254 255 0.875 0.75
0.43992853 0.75739276 3 0.04910795 0.3387539 0.93959254 123 82 254 255 0.625 0.75
1.1626018 -0.44063786 1 0.73528284 -0.6548597 0.17469378 122 80 254 255 0.375 0.75
0.43992853 0.75739276 0.6341394 -0.5773494 -0.57731926 0.57738215 172 172 172 255 0.625 0.75
-0.43992853 -0.12246433 0.6341394 0.5773495 0.57731926 0.57738215 172 172 172 255 0.375 1
0.43992853 -0.12246433 0.6341394 -0.5773301 0.5773604 0.57736033 191 191 191 255 0.375 0.75
-0.43992853 -0.12246433 3 -0.049108047 -0.3387539 0.93959254 122 80 254 255 0.375 0
-0.43992853 0.75739276 0.6341394 0.5773301 -0.57736033 0.57736033 172 172 172 255 0.625 0
0.84174055 1.6469189 -0.84174055 0.18563353 0.6488053 -0.73796463 122 80 254 255 0.6447824 0.5197824
-0.84174055 1.6469189 -0.84174055 -0.316187 0.59881085 -0.7358337 122 80 254 255 0.8552176 0.5197824
1 -0.68253577 -1 0.59608227 -0.65868455 -0.45915204 122 80 254 255 0.375 0.5
-1 -0.68253577 -1 -0.59607893 -0.65870446 -0.4591279 122 80 254 255 0.375 0.25
-1.1626018 1.0755663 1 -0.7741893 0.5796073 0.2543353 122 80 254 255 0.875 0.75
-0.7182296 1.0356938 -1.5422587 0.093049705 0.76640046 -0.63558805 122 80 254 255 0.625 0.25
-0.7182296 -0.4007654 -1.1482106 -0.22483902 -0.257534 -0.93974656 122 80 254 255 0.375 0.25
-0.7182296 1.0356938 -1.5422587 0.093049705 0.76640046 -0.63558805 122 80 254 255 0.875 0.5
-1 1.3174642 -1 -0.76954406 0.45975408 -0.44320208 122 80 254 255 0.625 0.25
0.84174055 1.6641744 -0.8761551 -0.64897907 -0.75082606 0.12282648 239 254 0 255 0.6447824 0.5197824
-0.84174055 1.6641744 -0.8761551 0.64898175 -0.7508234 0.12282914 239 254 0 255 0.8552176 0.5197824
0.7182296 1.0529493 -1.5766733 -0.5218716 0.12081346 0.84442526 239 254 0 255 0.625 0.5
-0.7182296 1.0356938 -1.5422587 0.093049705 0.76640046 -0.63558805 122 80 254 255 0 0
-0.84174055 1.6641744 -0.8761551 0.64898175 -0.7508234 0.12282914 239 254 0 255 0 0
-0.84174055 1.6469189 -0.84174055 -0.316187 0.59881085 -0.7358337 122 80 254 255 0 0
-0.7182296 1.0529493 -1.5766733 0.52186894 0.12081917 0.84442616 239 254 0 255 0.875 0.5
0.7182296 1.0356938 -1.5422587 -0.09304737 0.7664223 -0.63556194 122 80 254 255 0 0
0.84174055 1.6641744 -0.8761551 -0.64897907 -0.75082606 0.12282648 239 254 0 255 0 0
0.7182296 1.0529493 -1.5766733 -0.5218716 0.12081346 0.84442526 239 254 0 255 0 0
-0.43992853 0.75739276 0.6341394 0.5773301 -0.57736033 0.57736033 172 172 172 255 0.625 1
-0.43992853 -0.12246433 0.6341394 0.5773495 0.57731926 0.57738215 172 172 172 255 0.375 0
-0.43992853 0.75739276 0.6341394 0.5773301 -0.57736033 0.57736033 172 172 172 255 0.875 0.75
-0.7182296 1.0529493 -1.5766733 0.52186894 0.12081917 0.84442616 239 254 0 255 0.625 0.25
-0.7182296 1.0529493 -1.5766733 0.52186894 0.12081917 0.84442616 239 254 0 255 0 0
0.84174055 1.6469189 -0.84174055 0.18563353 0.6488053 -0.73796463 122 80 254 255 0 0
3 0 1 2
3 3 4 5
3 6 7 8
3 5 9 10
3 11 12 13
3 14 11 13
3 15 16 17
3 15 11 18
3 19 20 21
3 22 23 7
3 16 19 17
3 17 21 11
3 24 3 25
3 15 24 10
3 4 15 9
3 0 18 26
3 18 27 26
3 25 10 24
3 28 27 6
3 29 1 30
3 27 1 26
3 0 31 3
3 32 30 27
3 25 33 24
3 34 35 33
3 36 37 38
3 2 39 31
3 40 41 42
3 0 26 1
3 5 25 3
3 3 28 4
3 6 22 7
3 5 4 9
3 11 21 12
3 14 18 11
3 15 28 16
3 15 17 11
3 19 43 20
3 22 44 23
3 16 45 19
3 17 19 21
3 24 0 3
3 10 9 15
3 15 0 24
3 4 28 15
3 0 15 18
3 18 14 27
3 25 5 10
3 28 32 27
3 29 2 1
3 27 30 1
3 0 2 31
3 32 29 30
3 25 34 33
3 34 46 35
3 36 47 37
3 2 35 39
3 40 48 41
