ply
format ascii 1.0
comment Created by Blender 3.0.1 - www.blender.org
element vertex 273
property float x
property float y
property float z
property uchar red
property uchar green
property uchar blue
property uchar alpha
element face 522
property list uchar uint vertex_indices
end_header
-0.004726 1.032643 -0.493392 153 35 45 255
1.000000 1.000000 -1.000000 153 35 45 255
0.000000 0.594640 -3.173874 153 35 45 255
1.212751 0.000000 2.954795 153 35 45 255
0.803087 0.677904 2.856696 153 35 45 255
0.000000 0.000000 6.914457 153 35 45 255
0.878163 0.931344 -0.124277 153 35 45 255
1.084138 0.000000 0.000000 153 35 45 255
1.000000 0.647735 -8.001181 153 35 45 255
1.115555 0.763406 1.934900 153 35 45 255
0.721746 0.843202 1.000000 153 35 45 255
0.000000 1.349416 1.061859 153 35 45 255
0.000000 1.005883 4.003893 153 35 45 255
0.000000 1.366841 0.535236 153 35 45 255
-1.000000 1.000000 -1.000000 153 35 45 255
0.004726 1.032643 -0.493392 153 35 45 255
-1.212751 0.000000 2.954795 153 35 45 255
-0.803087 0.677904 2.856696 153 35 45 255
-1.084138 0.000000 0.000000 153 35 45 255
-0.878163 0.931344 -0.124277 153 35 45 255
-1.000000 0.647735 -8.001181 153 35 45 255
-1.115555 0.763406 1.934900 153 35 45 255
-0.721746 0.843202 1.000000 153 35 45 255
1.000000 -1.000000 -1.000000 153 35 45 255
-0.004726 -1.032643 -0.493392 153 35 45 255
0.000000 -0.594640 -3.173874 153 35 45 255
0.803087 -0.677904 2.856696 153 35 45 255
0.878163 -0.931344 -0.124277 153 35 45 255
1.000000 -0.647735 -8.001181 153 35 45 255
1.115555 -0.763406 1.934900 153 35 45 255
0.721746 -0.843202 1.000000 153 35 45 255
0.000000 -1.005883 4.003893 153 35 45 255
0.000000 -1.366841 0.535236 153 35 45 255
0.000000 -1.349416 1.061859 153 35 45 255
0.004726 -1.032643 -0.493392 153 35 45 255
-1.000000 -1.000000 -1.000000 153 35 45 255
-0.803087 -0.677904 2.856696 153 35 45 255
-0.878163 -0.931344 -0.124277 153 35 45 255
-1.000000 -0.647735 -8.001181 153 35 45 255
-1.115555 -0.763406 1.934900 153 35 45 255
-0.721746 -0.843202 1.000000 153 35 45 255
0.662738 -1.099615 2.243581 0 0 0 255
0.769587 -0.949291 2.203878 236 236 236 255
0.741105 -1.052235 2.281513 0 0 0 255
0.500976 -0.832053 2.034668 255 255 255 255
0.757174 -0.828497 2.152005 255 255 255 255
0.567980 -0.942881 2.060429 255 255 255 255
0.377168 -0.627270 2.133789 239 239 239 255
0.623166 -0.606842 2.152005 255 255 255 255
0.433972 -0.721225 2.060429 255 255 255 255
0.339213 -0.564492 2.243581 236 236 236 255
0.325885 -0.542447 2.373089 236 236 236 255
0.417580 -0.517112 2.281513 236 236 236 255
0.676066 -1.121660 2.373089 0 0 0 255
0.624783 -1.036836 2.133789 236 236 236 255
0.705758 -0.708245 2.133789 255 255 255 255
0.521971 -0.539725 2.203878 239 239 239 255
0.450041 -0.497487 2.373089 236 236 236 255
0.773566 -1.032610 2.373089 0 0 0 255
0.829566 -0.913028 2.373089 236 236 236 255
0.790582 -0.656963 2.373089 255 255 255 255
0.581951 -0.503463 2.373089 236 236 236 255
0.835541 -0.781118 2.373089 255 255 255 255
0.701533 -0.559463 2.373089 236 236 236 255
0.757174 -0.828497 2.594173 236 236 236 255
0.769587 -0.949291 2.542299 236 236 236 255
0.623166 -0.606842 2.594173 236 236 236 255
0.705758 -0.708245 2.612389 236 236 236 255
0.521971 -0.539725 2.542299 236 236 236 255
0.741105 -1.052235 2.464665 0 0 0 255
0.417580 -0.517112 2.464665 236 236 236 255
0.624783 -1.036836 2.612388 236 236 236 255
0.662738 -1.099615 2.502597 0 0 0 255
0.567980 -0.942881 2.685749 236 236 236 255
0.377168 -0.627270 2.612388 236 236 236 255
0.433972 -0.721225 2.685749 236 236 236 255
0.339213 -0.564492 2.502597 236 236 236 255
0.500976 -0.832053 2.711509 236 236 236 255
0.378786 -1.057264 2.594173 236 236 236 255
0.244777 -0.835609 2.594173 236 236 236 255
0.260846 -0.611871 2.464665 236 236 236 255
0.584371 -1.146994 2.464665 2 2 2 255
0.479980 -1.124381 2.542299 236 236 236 255
0.296193 -0.955861 2.612388 236 236 236 255
0.232365 -0.714816 2.542299 236 236 236 255
0.551911 -1.166619 2.373089 44 44 44 255
0.300419 -1.104643 2.373089 236 236 236 255
0.420001 -1.160643 2.373089 236 236 236 255
0.166410 -0.882988 2.373089 236 236 236 255
0.211369 -1.007143 2.373089 236 236 236 255
0.172385 -0.751078 2.373089 236 236 236 255
0.228386 -0.631496 2.373089 236 236 236 255
0.244777 -0.835609 2.152005 239 239 239 255
0.296193 -0.955861 2.133789 236 236 236 255
0.232365 -0.714816 2.203878 236 236 236 255
0.584371 -1.146994 2.281513 0 0 0 255
0.378786 -1.057264 2.152005 236 236 236 255
0.260846 -0.611871 2.281513 236 236 236 255
0.479980 -1.124381 2.203878 236 236 236 255
-0.655205 -1.078490 2.127461 236 236 236 255
-0.609477 -1.186549 2.275185 21 21 21 255
-0.690058 -1.143042 2.237253 0 0 0 255
-0.541516 -0.867921 2.028340 255 255 255 255
-0.408504 -1.086915 2.145677 236 236 236 255
-0.603044 -0.981880 2.054101 255 255 255 255
-0.479988 -0.753962 2.054101 255 255 255 255
-0.278932 -0.737743 2.197551 255 255 255 255
-0.285448 -0.858997 2.145677 255 255 255 255
-0.392974 -0.592800 2.237253 238 238 238 255
-0.380735 -0.570132 2.366761 236 236 236 255
-0.312393 -0.636307 2.275185 255 255 255 255
-0.702296 -1.165710 2.366761 0 0 0 255
-0.506310 -1.158880 2.197551 236 236 236 255
-0.330947 -0.981610 2.127461 236 236 236 255
-0.427827 -0.657353 2.127461 255 255 255 255
-0.279015 -0.654328 2.366761 255 255 255 255
-0.576099 -1.204570 2.366761 0 0 0 255
-0.444636 -1.192179 2.366761 236 236 236 255
-0.243727 -1.028702 2.366761 236 236 236 255
-0.217258 -0.771042 2.366761 255 255 255 255
-0.327923 -1.130422 2.366761 236 236 236 255
-0.204867 -0.902504 2.366761 236 236 236 255
-0.506310 -1.158880 2.535971 236 236 236 255
-0.285448 -0.858997 2.587845 236 236 236 255
-0.330947 -0.981610 2.606061 236 236 236 255
-0.278932 -0.737743 2.535971 236 236 236 255
-0.609477 -1.186549 2.458337 11 11 11 255
-0.408504 -1.086915 2.587845 236 236 236 255
-0.312393 -0.636307 2.458337 236 236 236 255
-0.655205 -1.078490 2.606061 236 236 236 255
-0.690058 -1.143042 2.496269 0 0 0 255
-0.603044 -0.981880 2.679421 236 236 236 255
-0.479988 -0.753962 2.679421 236 236 236 255
-0.392974 -0.592800 2.496269 236 236 236 255
-0.541516 -0.867921 2.705182 236 236 236 255
-0.427827 -0.657353 2.606061 236 236 236 255
-0.752084 -0.754232 2.606061 236 236 236 255
-0.797584 -0.876845 2.587845 236 236 236 255
-0.674528 -0.648928 2.587845 236 236 236 255
-0.473555 -0.549293 2.458337 236 236 236 255
-0.770639 -1.099535 2.458337 0 0 0 255
-0.804099 -0.998100 2.535971 236 236 236 255
-0.576721 -0.576963 2.535971 236 236 236 255
-0.804016 -1.081514 2.366761 0 0 0 255
-0.878165 -0.833338 2.366761 236 236 236 255
-0.865773 -0.964801 2.366761 236 236 236 255
-0.755109 -0.605421 2.366761 236 236 236 255
-0.839305 -0.707141 2.366761 236 236 236 255
-0.506933 -0.531272 2.366761 236 236 236 255
-0.638395 -0.543664 2.366761 236 236 236 255
-0.752084 -0.754232 2.127461 238 238 238 255
-0.576721 -0.576963 2.197551 238 238 238 255
-0.770639 -1.099535 2.275185 0 0 0 255
-0.797584 -0.876845 2.145677 239 239 239 255
-0.674528 -0.648928 2.145677 238 238 238 255
-0.473555 -0.549293 2.275185 236 236 236 255
-0.804099 -0.998100 2.197551 236 236 236 255
0.367881 0.619136 2.133789 236 236 236 255
0.403184 0.507236 2.281513 236 236 236 255
0.327079 0.558169 2.243581 236 236 236 255
0.500976 0.818007 2.034668 255 255 255 255
0.612679 0.587415 2.152005 236 236 236 255
0.428945 0.710379 2.060429 255 255 255 255
0.573007 0.925636 2.060429 255 255 255 255
0.774695 0.922766 2.203878 255 255 255 255
0.756740 0.802672 2.152005 255 255 255 255
0.674873 1.077845 2.243581 0 0 0 255
0.689201 1.099254 2.373089 0 0 0 255
0.750978 1.026912 2.281513 0 0 0 255
0.312751 0.536760 2.373089 236 236 236 255
0.508504 0.525023 2.203878 236 236 236 255
0.699848 0.684912 2.133789 236 236 236 255
0.634071 1.016879 2.133789 255 255 255 255
0.782502 1.005815 2.373089 0 0 0 255
0.434707 0.486138 2.373089 236 236 236 255
0.566752 0.486040 2.373089 236 236 236 255
0.782223 0.629782 2.373089 236 236 236 255
0.832943 0.883783 2.373089 255 255 255 255
0.688784 0.536481 2.373089 236 236 236 255
0.832845 0.751738 2.373089 236 236 236 255
0.508504 0.525023 2.542299 236 236 236 255
0.699848 0.684912 2.612389 236 236 236 255
0.774695 0.922766 2.542299 236 236 236 255
0.403184 0.507236 2.464665 236 236 236 255
0.612679 0.587415 2.594173 236 236 236 255
0.756740 0.802672 2.594173 236 236 236 255
0.750978 1.026912 2.464665 0 0 0 255
0.367881 0.619136 2.612388 236 236 236 255
0.327079 0.558169 2.502597 236 236 236 255
0.428945 0.710379 2.685749 236 236 236 255
0.634071 1.016879 2.612388 236 236 236 255
0.573007 0.925636 2.685749 236 236 236 255
0.674873 1.077845 2.502597 1 1 1 255
0.500976 0.818007 2.711509 236 236 236 255
0.302104 0.951103 2.612388 236 236 236 255
0.245212 0.833343 2.594173 236 236 236 255
0.389273 1.048600 2.594173 236 236 236 255
0.598769 1.128779 2.464665 6 6 6 255
0.250974 0.609102 2.464665 236 236 236 255
0.227257 0.713248 2.542299 236 236 236 255
0.493448 1.110991 2.542299 236 236 236 255
0.219450 0.630200 2.373089 236 236 236 255
0.169009 0.752231 2.373089 236 236 236 255
0.219729 1.006232 2.373089 236 236 236 255
0.567245 1.149876 2.373089 19 19 19 255
0.435200 1.149974 2.373089 236 236 236 255
0.169107 0.884276 2.373089 236 236 236 255
0.313168 1.099533 2.373089 236 236 236 255
0.302104 0.951103 2.133789 236 236 236 255
0.493448 1.110991 2.203878 237 237 237 255
0.250974 0.609102 2.281513 236 236 236 255
0.245212 0.833343 2.152005 236 236 236 255
0.389273 1.048600 2.152005 237 237 237 255
0.598769 1.128779 2.281513 0 0 0 255
0.227257 0.713248 2.203878 236 236 236 255
-0.383235 0.602663 2.127461 236 236 236 255
-0.266030 0.608214 2.275185 236 236 236 255
-0.334712 0.547643 2.237253 236 236 236 255
-0.541516 0.782139 2.028340 255 255 255 255
-0.290041 0.831240 2.145677 255 255 255 255
-0.455855 0.685007 2.054101 255 255 255 255
-0.627177 0.879270 2.054101 236 236 236 255
-0.572888 1.073536 2.197551 236 236 236 255
-0.461363 1.025503 2.145677 236 236 236 255
-0.748320 1.016635 2.237253 1 1 1 255
-0.765359 1.035955 2.366761 0 0 0 255
-0.679637 1.077206 2.275185 0 0 0 255
-0.317673 0.528322 2.366761 236 236 236 255
-0.256327 0.714585 2.197551 255 255 255 255
-0.362040 0.940420 2.127461 255 255 255 255
-0.699797 0.961614 2.127461 236 236 236 255
-0.651188 1.102296 2.366761 0 0 0 255
-0.237580 0.633304 2.366761 236 236 236 255
-0.203760 0.760944 2.366761 255 255 255 255
-0.287699 1.005982 2.366761 255 255 255 255
-0.520321 1.119895 2.366761 236 236 236 255
-0.221359 0.891811 2.366761 255 255 255 255
-0.392681 1.086074 2.366761 236 236 236 255
-0.256327 0.714585 2.535971 236 236 236 255
-0.362040 0.940420 2.606061 236 236 236 255
-0.679637 1.077206 2.458337 0 0 0 255
-0.572888 1.073536 2.535971 236 236 236 255
-0.266030 0.608214 2.458337 236 236 236 255
-0.290041 0.831240 2.587845 236 236 236 255
-0.461363 1.025503 2.587845 236 236 236 255
-0.383235 0.602663 2.606061 236 236 236 255
-0.334712 0.547643 2.496269 236 236 236 255
-0.455855 0.685007 2.679421 236 236 236 255
-0.627177 0.879270 2.679421 236 236 236 255
-0.748320 1.016635 2.496269 0 0 0 255
-0.541516 0.782139 2.705182 236 236 236 255
-0.699797 0.961614 2.606061 236 236 236 255
-0.720991 0.623858 2.606061 236 236 236 255
-0.621668 0.538775 2.587845 236 236 236 255
-0.792991 0.733038 2.587845 236 236 236 255
-0.817002 0.956063 2.458337 0 0 0 255
-0.403394 0.487071 2.458337 236 236 236 255
-0.510143 0.490742 2.535971 236 236 236 255
-0.826705 0.849693 2.535971 236 236 236 255
-0.431843 0.461982 2.366761 236 236 236 255
-0.562710 0.444382 2.366761 236 236 236 255
-0.795332 0.558296 2.366761 236 236 236 255
-0.845451 0.930973 2.366761 0 0 0 255
-0.879272 0.803333 2.366761 236 236 236 255
-0.690351 0.478203 2.366761 236 236 236 255
-0.861673 0.672466 2.366761 236 236 236 255
-0.792991 0.733038 2.145677 236 236 236 255
-0.720991 0.623858 2.127461 236 236 236 255
-0.826705 0.849693 2.197551 236 236 236 255
-0.403394 0.487071 2.275185 236 236 236 255
-0.621668 0.538775 2.145677 236 236 236 255
-0.817002 0.956063 2.275185 0 0 0 255
-0.510143 0.490742 2.197551 236 236 236 255
3 0 1 2
3 3 4 5
3 6 7 1
3 8 1 7
3 9 7 10
3 4 9 11
3 5 4 12
3 6 13 10
3 2 8 7
3 1 8 2
3 11 10 13
3 14 15 2
3 16 5 17
3 18 19 14
3 20 18 14
3 18 21 22
3 21 16 17
3 5 12 17
3 19 13 15
3 2 18 20
3 14 2 20
3 11 22 21
3 23 24 25
3 3 5 26
3 7 27 23
3 28 7 23
3 7 29 30
3 29 3 26
3 5 31 26
3 27 32 24
3 25 7 28
3 23 25 28
3 33 30 29
3 34 35 25
3 16 36 5
3 37 18 35
3 38 35 18
3 39 18 40
3 36 39 33
3 5 36 31
3 37 32 40
3 25 38 18
3 35 38 25
3 33 40 32
3 0 6 1
3 6 10 7
3 9 3 7
3 11 12 4
3 4 3 9
3 6 0 13
3 11 9 10
3 14 19 15
3 18 22 19
3 18 16 21
3 17 12 11
3 11 21 17
3 19 22 13
3 11 13 22
3 23 27 24
3 7 30 27
3 7 3 29
3 26 31 33
3 33 29 26
3 27 30 32
3 33 32 30
3 34 37 35
3 37 40 18
3 39 16 18
3 33 31 36
3 36 16 39
3 37 34 32
3 33 39 40
3 41 42 43
3 44 45 46
3 47 48 49
3 50 51 52
3 53 41 43
3 46 42 54
3 49 55 44
3 50 56 47
3 52 51 57
3 53 43 58
3 45 59 42
3 48 60 55
3 52 61 56
3 43 59 58
3 55 62 45
3 48 61 63
3 59 64 65
3 60 66 67
3 57 68 61
3 58 65 69
3 60 64 62
3 63 68 66
3 57 51 70
3 53 58 69
3 69 71 72
3 67 73 64
3 66 74 75
3 70 51 76
3 53 69 72
3 64 71 65
3 66 77 67
3 70 74 68
3 77 78 73
3 74 79 75
3 76 51 80
3 53 72 81
3 73 82 71
3 75 83 77
3 74 80 84
3 71 81 72
3 53 81 85
3 82 86 87
3 83 88 89
3 80 90 84
3 81 87 85
3 83 86 78
3 84 88 79
3 80 51 91
3 89 92 93
3 91 94 90
3 87 95 85
3 86 93 96
3 90 92 88
3 91 51 97
3 53 85 95
3 87 96 98
3 95 54 41
3 93 46 96
3 94 49 92
3 97 51 50
3 53 95 41
3 98 46 54
3 93 49 44
3 97 47 94
3 99 100 101
3 102 103 104
3 105 106 107
3 108 109 110
3 111 101 100
3 104 112 99
3 105 113 102
3 114 110 106
3 110 109 115
3 111 100 116
3 103 117 112
3 107 118 113
3 106 115 119
3 112 116 100
3 113 120 103
3 107 119 121
3 120 122 117
3 118 123 124
3 115 125 119
3 116 122 126
3 118 127 120
3 121 125 123
3 115 109 128
3 111 116 126
3 126 129 130
3 124 131 127
3 125 132 123
3 128 109 133
3 111 126 130
3 122 131 129
3 123 134 124
3 128 135 125
3 131 136 137
3 135 138 132
3 133 109 139
3 111 130 140
3 129 137 141
3 134 138 136
3 133 142 135
3 129 140 130
3 111 140 143
3 141 144 145
3 136 146 147
3 142 148 149
3 141 143 140
3 136 144 137
3 142 146 138
3 139 109 148
3 146 150 147
3 148 151 149
3 145 152 143
3 147 153 144
3 149 154 146
3 148 109 155
3 111 143 152
3 145 153 156
3 156 101 152
3 150 104 153
3 151 105 154
3 155 109 108
3 111 152 101
3 153 99 156
3 150 105 102
3 151 108 114
3 157 158 159
3 160 161 162
3 163 164 165
3 166 167 168
3 169 159 158
3 162 170 157
3 163 171 160
3 166 164 172
3 168 167 173
3 169 158 174
3 161 175 170
3 165 176 171
3 164 173 177
3 170 174 158
3 171 178 161
3 165 177 179
3 178 180 175
3 179 181 176
3 173 182 177
3 174 180 183
3 176 184 178
3 179 182 185
3 173 167 186
3 169 174 183
3 183 187 188
3 181 189 184
3 185 190 191
3 186 167 192
3 169 183 188
3 184 187 180
3 185 193 181
3 186 190 182
3 189 194 195
3 190 196 191
3 192 167 197
3 169 188 198
3 189 199 187
3 193 196 194
3 190 197 200
3 187 198 188
3 169 198 201
3 195 202 199
3 196 203 194
3 200 204 205
3 199 201 198
3 194 206 195
3 200 207 196
3 197 167 204
3 207 208 203
3 204 209 205
3 202 210 201
3 203 211 206
3 205 212 207
3 204 167 213
3 169 201 210
3 206 214 202
3 214 159 210
3 208 162 211
3 212 172 163
3 213 167 166
3 169 210 159
3 214 162 157
3 212 160 208
3 213 172 209
3 215 216 217
3 218 219 220
3 221 222 223
3 224 225 226
3 227 217 216
3 220 228 215
3 218 223 229
3 224 222 230
3 226 225 231
3 227 216 232
3 219 233 228
3 223 234 229
3 226 235 222
3 228 232 216
3 229 236 219
3 223 235 237
3 236 238 233
3 237 239 234
3 235 240 241
3 232 238 242
3 234 243 236
3 237 241 244
3 231 225 240
3 227 232 242
3 242 245 246
3 239 247 243
3 241 248 244
3 240 225 249
3 227 242 246
3 238 247 245
3 244 250 239
3 240 251 241
3 247 252 253
3 251 254 248
3 249 225 255
3 227 246 256
3 245 253 257
3 248 252 250
3 251 255 258
3 245 256 246
3 227 256 259
3 253 260 257
3 254 261 252
3 258 262 263
3 257 259 256
3 252 264 253
3 258 265 254
3 255 225 262
3 261 266 267
3 262 268 263
3 260 269 259
3 264 267 270
3 263 266 265
3 262 225 271
3 227 259 269
3 264 272 260
3 272 217 269
3 270 218 220
3 268 221 266
3 271 225 224
3 227 269 217
3 272 220 215
3 267 221 218
3 271 230 268
3 41 54 42
3 44 55 45
3 47 56 48
3 46 45 42
3 49 48 55
3 50 52 56
3 45 62 59
3 48 63 60
3 52 57 61
3 43 42 59
3 55 60 62
3 48 56 61
3 59 62 64
3 60 63 66
3 57 70 68
3 58 59 65
3 60 67 64
3 63 61 68
3 69 65 71
3 67 77 73
3 66 68 74
3 64 73 71
3 66 75 77
3 70 76 74
3 77 83 78
3 74 84 79
3 73 78 82
3 75 79 83
3 74 76 80
3 71 82 81
3 82 78 86
3 83 79 88
3 80 91 90
3 81 82 87
3 83 89 86
3 84 90 88
3 89 88 92
3 91 97 94
3 87 98 95
3 86 89 93
3 90 94 92
3 87 86 96
3 95 98 54
3 93 44 46
3 94 47 49
3 98 96 46
3 93 92 49
3 97 50 47
3 99 112 100
3 102 113 103
3 105 114 106
3 104 103 112
3 105 107 113
3 114 108 110
3 103 120 117
3 107 121 118
3 106 110 115
3 112 117 116
3 113 118 120
3 107 106 119
3 120 127 122
3 118 121 123
3 115 128 125
3 116 117 122
3 118 124 127
3 121 119 125
3 126 122 129
3 124 134 131
3 125 135 132
3 122 127 131
3 123 132 134
3 128 133 135
3 131 134 136
3 135 142 138
3 129 131 137
3 134 132 138
3 133 139 142
3 129 141 140
3 141 137 144
3 136 138 146
3 142 139 148
3 141 145 143
3 136 147 144
3 142 149 146
3 146 154 150
3 148 155 151
3 145 156 152
3 147 150 153
3 149 151 154
3 145 144 153
3 156 99 101
3 150 102 104
3 151 114 105
3 153 104 99
3 150 154 105
3 151 155 108
3 157 170 158
3 160 171 161
3 163 172 164
3 162 161 170
3 163 165 171
3 166 168 164
3 161 178 175
3 165 179 176
3 164 168 173
3 170 175 174
3 171 176 178
3 165 164 177
3 178 184 180
3 179 185 181
3 173 186 182
3 174 175 180
3 176 181 184
3 179 177 182
3 183 180 187
3 181 193 189
3 185 182 190
3 184 189 187
3 185 191 193
3 186 192 190
3 189 193 194
3 190 200 196
3 189 195 199
3 193 191 196
3 190 192 197
3 187 199 198
3 195 206 202
3 196 207 203
3 200 197 204
3 199 202 201
3 194 203 206
3 200 205 207
3 207 212 208
3 204 213 209
3 202 214 210
3 203 208 211
3 205 209 212
3 206 211 214
3 214 157 159
3 208 160 162
3 212 209 172
3 214 211 162
3 212 163 160
3 213 166 172
3 215 228 216
3 218 229 219
3 221 230 222
3 220 219 228
3 218 221 223
3 224 226 222
3 219 236 233
3 223 237 234
3 226 231 235
3 228 233 232
3 229 234 236
3 223 222 235
3 236 243 238
3 237 244 239
3 235 231 240
3 232 233 238
3 234 239 243
3 237 235 241
3 242 238 245
3 239 250 247
3 241 251 248
3 238 243 247
3 244 248 250
3 240 249 251
3 247 250 252
3 251 258 254
3 245 247 253
3 248 254 252
3 251 249 255
3 245 257 256
3 253 264 260
3 254 265 261
3 258 255 262
3 257 260 259
3 252 261 264
3 258 263 265
3 261 265 266
3 262 271 268
3 260 272 269
3 264 261 267
3 263 268 266
3 264 270 272
3 272 215 217
3 270 267 218
3 268 230 221
3 272 270 220
3 267 266 221
3 271 224 230
3 7 18 2
3 7 25 18
