ply
format ascii 1.0
comment Created by Blender 3.0.1 - www.blender.org
element vertex 275
property float x
property float y
property float z
property uchar red
property uchar green
property uchar blue
property uchar alpha
element face 520
property list uchar uint vertex_indices
end_header
-0.004726 1.032643 -0.493392 153 35 45 255
1.000000 1.000000 -1.000000 153 35 45 255
-0.009601 0.594640 -3.173874 153 35 45 255
1.212751 0.000000 2.954795 153 35 45 255
0.803087 0.677904 2.856696 153 35 45 255
0.000000 0.000000 6.914457 153 35 45 255
0.878163 0.931344 -0.124277 153 35 45 255
1.084138 0.000000 0.000000 153 35 45 255
1.000000 0.647735 -8.001181 153 35 45 255
1.115555 0.763406 1.934900 153 35 45 255
0.721746 0.843202 1.000000 153 35 45 255
0.000000 1.349416 1.061859 153 35 45 255
0.000000 1.005883 4.003893 153 35 45 255
0.000000 1.366841 0.535236 153 35 45 255
-1.000000 1.000000 -1.000000 153 35 45 255
0.004726 1.032643 -0.493392 153 35 45 255
0.009601 0.594640 -3.173874 153 35 45 255
-1.212751 0.000000 2.954795 153 35 45 255
-0.803087 0.677904 2.856696 153 35 45 255
-1.084138 0.000000 0.000000 153 35 45 255
-0.878163 0.931344 -0.124277 153 35 45 255
-1.000000 0.647735 -8.001181 153 35 45 255
-1.115555 0.763406 1.934900 153 35 45 255
-0.721746 0.843202 1.000000 153 35 45 255
1.000000 -1.000000 -1.000000 153 35 45 255
-0.004726 -1.032643 -0.493392 153 35 45 255
-0.009601 -0.594640 -3.173874 153 35 45 255
0.803087 -0.677904 2.856696 153 35 45 255
0.878163 -0.931344 -0.124277 153 35 45 255
1.000000 -0.647735 -8.001181 153 35 45 255
1.115555 -0.763406 1.934900 153 35 45 255
0.721746 -0.843202 1.000000 153 35 45 255
0.000000 -1.005883 4.003893 153 35 45 255
0.000000 -1.366841 0.535236 153 35 45 255
0.000000 -1.349416 1.061859 153 35 45 255
0.004726 -1.032643 -0.493392 153 35 45 255
-1.000000 -1.000000 -1.000000 153 35 45 255
0.009601 -0.594640 -3.173874 153 35 45 255
-0.803087 -0.677904 2.856696 153 35 45 255
-0.878163 -0.931344 -0.124277 153 35 45 255
-1.000000 -0.647735 -8.001181 153 35 45 255
-1.115555 -0.763406 1.934900 153 35 45 255
-0.721746 -0.843202 1.000000 153 35 45 255
0.662738 -1.099615 2.243581 0 0 0 255
0.769587 -0.949291 2.203878 236 236 236 255
0.741105 -1.052235 2.281513 0 0 0 255
0.500976 -0.832053 2.034668 255 255 255 255
0.757174 -0.828497 2.152005 255 255 255 255
0.567980 -0.942881 2.060429 255 255 255 255
0.377168 -0.627270 2.133789 239 239 239 255
0.623166 -0.606842 2.152005 255 255 255 255
0.433972 -0.721225 2.060429 255 255 255 255
0.339213 -0.564492 2.243581 236 236 236 255
0.325885 -0.542447 2.373089 236 236 236 255
0.417580 -0.517112 2.281513 236 236 236 255
0.676066 -1.121660 2.373089 0 0 0 255
0.624783 -1.036836 2.133789 236 236 236 255
0.705758 -0.708245 2.133789 255 255 255 255
0.521971 -0.539725 2.203878 239 239 239 255
0.450041 -0.497487 2.373089 236 236 236 255
0.773566 -1.032610 2.373089 0 0 0 255
0.829566 -0.913028 2.373089 236 236 236 255
0.790582 -0.656963 2.373089 255 255 255 255
0.581951 -0.503463 2.373089 236 236 236 255
0.835541 -0.781118 2.373089 255 255 255 255
0.701533 -0.559463 2.373089 236 236 236 255
0.757174 -0.828497 2.594173 236 236 236 255
0.769587 -0.949291 2.542299 236 236 236 255
0.623166 -0.606842 2.594173 236 236 236 255
0.705758 -0.708245 2.612389 236 236 236 255
0.521971 -0.539725 2.542299 236 236 236 255
0.741105 -1.052235 2.464665 0 0 0 255
0.417580 -0.517112 2.464665 236 236 236 255
0.624783 -1.036836 2.612388 236 236 236 255
0.662738 -1.099615 2.502597 0 0 0 255
0.567980 -0.942881 2.685749 236 236 236 255
0.377168 -0.627270 2.612388 236 236 236 255
0.433972 -0.721225 2.685749 236 236 236 255
0.339213 -0.564492 2.502597 236 236 236 255
0.500976 -0.832053 2.711509 236 236 236 255
0.378786 -1.057264 2.594173 236 236 236 255
0.244777 -0.835609 2.594173 236 236 236 255
0.260846 -0.611871 2.464665 236 236 236 255
0.584371 -1.146994 2.464665 2 2 2 255
0.479980 -1.124381 2.542299 236 236 236 255
0.296193 -0.955861 2.612388 236 236 236 255
0.232365 -0.714816 2.542299 236 236 236 255
0.551911 -1.166619 2.373089 44 44 44 255
0.300419 -1.104643 2.373089 236 236 236 255
0.420001 -1.160643 2.373089 236 236 236 255
0.166410 -0.882988 2.373089 236 236 236 255
0.211369 -1.007143 2.373089 236 236 236 255
0.172385 -0.751078 2.373089 236 236 236 255
0.228386 -0.631496 2.373089 236 236 236 255
0.244777 -0.835609 2.152005 239 239 239 255
0.296193 -0.955861 2.133789 236 236 236 255
0.232365 -0.714816 2.203878 236 236 236 255
0.584371 -1.146994 2.281513 0 0 0 255
0.378786 -1.057264 2.152005 236 236 236 255
0.260846 -0.611871 2.281513 236 236 236 255
0.479980 -1.124381 2.203878 236 236 236 255
-0.655205 -1.078490 2.127461 236 236 236 255
-0.609477 -1.186549 2.275185 21 21 21 255
-0.690058 -1.143042 2.237253 0 0 0 255
-0.541516 -0.867921 2.028340 255 255 255 255
-0.408504 -1.086915 2.145677 236 236 236 255
-0.603044 -0.981880 2.054101 255 255 255 255
-0.479988 -0.753962 2.054101 255 255 255 255
-0.278932 -0.737743 2.197551 255 255 255 255
-0.285448 -0.858997 2.145677 255 255 255 255
-0.392974 -0.592800 2.237253 238 238 238 255
-0.380735 -0.570132 2.366761 236 236 236 255
-0.312393 -0.636307 2.275185 255 255 255 255
-0.702296 -1.165710 2.366761 0 0 0 255
-0.506310 -1.158880 2.197551 236 236 236 255
-0.330947 -0.981610 2.127461 236 236 236 255
-0.427827 -0.657353 2.127461 255 255 255 255
-0.279015 -0.654328 2.366761 255 255 255 255
-0.576099 -1.204570 2.366761 0 0 0 255
-0.444636 -1.192179 2.366761 236 236 236 255
-0.243727 -1.028702 2.366761 236 236 236 255
-0.217258 -0.771042 2.366761 255 255 255 255
-0.327923 -1.130422 2.366761 236 236 236 255
-0.204867 -0.902504 2.366761 236 236 236 255
-0.506310 -1.158880 2.535971 236 236 236 255
-0.285448 -0.858997 2.587845 236 236 236 255
-0.330947 -0.981610 2.606061 236 236 236 255
-0.278932 -0.737743 2.535971 236 236 236 255
-0.609477 -1.186549 2.458337 11 11 11 255
-0.408504 -1.086915 2.587845 236 236 236 255
-0.312393 -0.636307 2.458337 236 236 236 255
-0.655205 -1.078490 2.606061 236 236 236 255
-0.690058 -1.143042 2.496269 0 0 0 255
-0.603044 -0.981880 2.679421 236 236 236 255
-0.479988 -0.753962 2.679421 236 236 236 255
-0.392974 -0.592800 2.496269 236 236 236 255
-0.541516 -0.867921 2.705182 236 236 236 255
-0.427827 -0.657353 2.606061 236 236 236 255
-0.752084 -0.754232 2.606061 236 236 236 255
-0.797584 -0.876845 2.587845 236 236 236 255
-0.674528 -0.648928 2.587845 236 236 236 255
-0.473555 -0.549293 2.458337 236 236 236 255
-0.770639 -1.099535 2.458337 0 0 0 255
-0.804099 -0.998100 2.535971 236 236 236 255
-0.576721 -0.576963 2.535971 236 236 236 255
-0.804016 -1.081514 2.366761 0 0 0 255
-0.878165 -0.833338 2.366761 236 236 236 255
-0.865773 -0.964801 2.366761 236 236 236 255
-0.755109 -0.605421 2.366761 236 236 236 255
-0.839305 -0.707141 2.366761 236 236 236 255
-0.506933 -0.531272 2.366761 236 236 236 255
-0.638395 -0.543664 2.366761 236 236 236 255
-0.752084 -0.754232 2.127461 238 238 238 255
-0.576721 -0.576963 2.197551 238 238 238 255
-0.770639 -1.099535 2.275185 0 0 0 255
-0.797584 -0.876845 2.145677 239 239 239 255
-0.674528 -0.648928 2.145677 238 238 238 255
-0.473555 -0.549293 2.275185 236 236 236 255
-0.804099 -0.998100 2.197551 236 236 236 255
0.367881 0.619136 2.133789 236 236 236 255
0.403184 0.507236 2.281513 236 236 236 255
0.327079 0.558169 2.243581 236 236 236 255
0.500976 0.818007 2.034668 255 255 255 255
0.612679 0.587415 2.152005 236 236 236 255
0.428945 0.710379 2.060429 255 255 255 255
0.573007 0.925636 2.060429 255 255 255 255
0.774695 0.922766 2.203878 255 255 255 255
0.756740 0.802672 2.152005 255 255 255 255
0.674873 1.077845 2.243581 0 0 0 255
0.689201 1.099254 2.373089 0 0 0 255
0.750978 1.026912 2.281513 0 0 0 255
0.312751 0.536760 2.373089 236 236 236 255
0.508504 0.525023 2.203878 236 236 236 255
0.699848 0.684912 2.133789 236 236 236 255
0.634071 1.016879 2.133789 255 255 255 255
0.782502 1.005815 2.373089 0 0 0 255
0.434707 0.486138 2.373089 236 236 236 255
0.566752 0.486040 2.373089 236 236 236 255
0.782223 0.629782 2.373089 236 236 236 255
0.832943 0.883783 2.373089 255 255 255 255
0.688784 0.536481 2.373089 236 236 236 255
0.832845 0.751738 2.373089 236 236 236 255
0.508504 0.525023 2.542299 236 236 236 255
0.699848 0.684912 2.612389 236 236 236 255
0.774695 0.922766 2.542299 236 236 236 255
0.403184 0.507236 2.464665 236 236 236 255
0.612679 0.587415 2.594173 236 236 236 255
0.756740 0.802672 2.594173 236 236 236 255
0.750978 1.026912 2.464665 0 0 0 255
0.367881 0.619136 2.612388 236 236 236 255
0.327079 0.558169 2.502597 236 236 236 255
0.428945 0.710379 2.685749 236 236 236 255
0.634071 1.016879 2.612388 236 236 236 255
0.573007 0.925636 2.685749 236 236 236 255
0.674873 1.077845 2.502597 1 1 1 255
0.500976 0.818007 2.711509 236 236 236 255
0.302104 0.951103 2.612388 236 236 236 255
0.245212 0.833343 2.594173 236 236 236 255
0.389273 1.048600 2.594173 236 236 236 255
0.598769 1.128779 2.464665 6 6 6 255
0.250974 0.609102 2.464665 236 236 236 255
0.227257 0.713248 2.542299 236 236 236 255
0.493448 1.110991 2.542299 236 236 236 255
0.219450 0.630200 2.373089 236 236 236 255
0.169009 0.752231 2.373089 236 236 236 255
0.219729 1.006232 2.373089 236 236 236 255
0.567245 1.149876 2.373089 19 19 19 255
0.435200 1.149974 2.373089 236 236 236 255
0.169107 0.884276 2.373089 236 236 236 255
0.313168 1.099533 2.373089 236 236 236 255
0.302104 0.951103 2.133789 236 236 236 255
0.493448 1.110991 2.203878 237 237 237 255
0.250974 0.609102 2.281513 236 236 236 255
0.245212 0.833343 2.152005 236 236 236 255
0.389273 1.048600 2.152005 237 237 237 255
0.598769 1.128779 2.281513 0 0 0 255
0.227257 0.713248 2.203878 236 236 236 255
-0.383235 0.602663 2.127461 236 236 236 255
-0.266030 0.608214 2.275185 236 236 236 255
-0.334712 0.547643 2.237253 236 236 236 255
-0.541516 0.782139 2.028340 255 255 255 255
-0.290041 0.831240 2.145677 255 255 255 255
-0.455855 0.685007 2.054101 255 255 255 255
-0.627177 0.879270 2.054101 236 236 236 255
-0.572888 1.073536 2.197551 236 236 236 255
-0.461363 1.025503 2.145677 236 236 236 255
-0.748320 1.016635 2.237253 1 1 1 255
-0.765359 1.035955 2.366761 0 0 0 255
-0.679637 1.077206 2.275185 0 0 0 255
-0.317673 0.528322 2.366761 236 236 236 255
-0.256327 0.714585 2.197551 255 255 255 255
-0.362040 0.940420 2.127461 255 255 255 255
-0.699797 0.961614 2.127461 236 236 236 255
-0.651188 1.102296 2.366761 0 0 0 255
-0.237580 0.633304 2.366761 236 236 236 255
-0.203760 0.760944 2.366761 255 255 255 255
-0.287699 1.005982 2.366761 255 255 255 255
-0.520321 1.119895 2.366761 236 236 236 255
-0.221359 0.891811 2.366761 255 255 255 255
-0.392681 1.086074 2.366761 236 236 236 255
-0.256327 0.714585 2.535971 236 236 236 255
-0.362040 0.940420 2.606061 236 236 236 255
-0.679637 1.077206 2.458337 0 0 0 255
-0.572888 1.073536 2.535971 236 236 236 255
-0.266030 0.608214 2.458337 236 236 236 255
-0.290041 0.831240 2.587845 236 236 236 255
-0.461363 1.025503 2.587845 236 236 236 255
-0.383235 0.602663 2.606061 236 236 236 255
-0.334712 0.547643 2.496269 236 236 236 255
-0.455855 0.685007 2.679421 236 236 236 255
-0.627177 0.879270 2.679421 236 236 236 255
-0.748320 1.016635 2.496269 0 0 0 255
-0.541516 0.782139 2.705182 236 236 236 255
-0.699797 0.961614 2.606061 236 236 236 255
-0.720991 0.623858 2.606061 236 236 236 255
-0.621668 0.538775 2.587845 236 236 236 255
-0.792991 0.733038 2.587845 236 236 236 255
-0.817002 0.956063 2.458337 0 0 0 255
-0.403394 0.487071 2.458337 236 236 236 255
-0.510143 0.490742 2.535971 236 236 236 255
-0.826705 0.849693 2.535971 236 236 236 255
-0.431843 0.461982 2.366761 236 236 236 255
-0.562710 0.444382 2.366761 236 236 236 255
-0.795332 0.558296 2.366761 236 236 236 255
-0.845451 0.930973 2.366761 0 0 0 255
-0.879272 0.803333 2.366761 236 236 236 255
-0.690351 0.478203 2.366761 236 236 236 255
-0.861673 0.672466 2.366761 236 236 236 255
-0.792991 0.733038 2.145677 236 236 236 255
-0.720991 0.623858 2.127461 236 236 236 255
-0.826705 0.849693 2.197551 236 236 236 255
-0.403394 0.487071 2.275185 236 236 236 255
-0.621668 0.538775 2.145677 236 236 236 255
-0.817002 0.956063 2.275185 0 0 0 255
-0.510143 0.490742 2.197551 236 236 236 255
3 0 1 2
3 3 4 5
3 6 7 1
3 8 1 7
3 9 7 10
3 4 9 11
3 5 4 12
3 6 13 10
3 2 8 7
3 1 8 2
3 11 10 13
3 14 15 16
3 17 5 18
3 19 20 14
3 21 19 14
3 19 22 23
3 22 17 18
3 5 12 18
3 20 13 15
3 16 19 21
3 14 16 21
3 11 23 22
3 24 25 26
3 3 5 27
3 7 28 24
3 29 7 24
3 7 30 31
3 30 3 27
3 5 32 27
3 28 33 25
3 26 7 29
3 24 26 29
3 34 31 30
3 35 36 37
3 17 38 5
3 39 19 36
3 40 36 19
3 41 19 42
3 38 41 34
3 5 38 32
3 39 33 42
3 37 40 19
3 36 40 37
3 34 42 33
3 0 6 1
3 6 10 7
3 9 3 7
3 11 12 4
3 4 3 9
3 6 0 13
3 11 9 10
3 14 20 15
3 19 23 20
3 19 17 22
3 18 12 11
3 11 22 18
3 20 23 13
3 11 13 23
3 24 28 25
3 7 31 28
3 7 3 30
3 27 32 34
3 34 30 27
3 28 31 33
3 34 33 31
3 35 39 36
3 39 42 19
3 41 17 19
3 34 32 38
3 38 17 41
3 39 35 33
3 34 41 42
3 43 44 45
3 46 47 48
3 49 50 51
3 52 53 54
3 55 43 45
3 48 44 56
3 51 57 46
3 52 58 49
3 54 53 59
3 55 45 60
3 47 61 44
3 50 62 57
3 54 63 58
3 45 61 60
3 57 64 47
3 50 63 65
3 61 66 67
3 62 68 69
3 59 70 63
3 60 67 71
3 62 66 64
3 65 70 68
3 59 53 72
3 55 60 71
3 71 73 74
3 69 75 66
3 68 76 77
3 72 53 78
3 55 71 74
3 66 73 67
3 68 79 69
3 72 76 70
3 79 80 75
3 76 81 77
3 78 53 82
3 55 74 83
3 75 84 73
3 77 85 79
3 76 82 86
3 73 83 74
3 55 83 87
3 84 88 89
3 85 90 91
3 82 92 86
3 83 89 87
3 85 88 80
3 86 90 81
3 82 53 93
3 91 94 95
3 93 96 92
3 89 97 87
3 88 95 98
3 92 94 90
3 93 53 99
3 55 87 97
3 89 98 100
3 97 56 43
3 95 48 98
3 96 51 94
3 99 53 52
3 55 97 43
3 100 48 56
3 95 51 46
3 99 49 96
3 101 102 103
3 104 105 106
3 107 108 109
3 110 111 112
3 113 103 102
3 106 114 101
3 107 115 104
3 116 112 108
3 112 111 117
3 113 102 118
3 105 119 114
3 109 120 115
3 108 117 121
3 114 118 102
3 115 122 105
3 109 121 123
3 122 124 119
3 120 125 126
3 117 127 121
3 118 124 128
3 120 129 122
3 123 127 125
3 117 111 130
3 113 118 128
3 128 131 132
3 126 133 129
3 127 134 125
3 130 111 135
3 113 128 132
3 124 133 131
3 125 136 126
3 130 137 127
3 133 138 139
3 137 140 134
3 135 111 141
3 113 132 142
3 131 139 143
3 136 140 138
3 135 144 137
3 131 142 132
3 113 142 145
3 143 146 147
3 138 148 149
3 144 150 151
3 143 145 142
3 138 146 139
3 144 148 140
3 141 111 150
3 148 152 149
3 150 153 151
3 147 154 145
3 149 155 146
3 151 156 148
3 150 111 157
3 113 145 154
3 147 155 158
3 158 103 154
3 152 106 155
3 153 107 156
3 157 111 110
3 113 154 103
3 155 101 158
3 152 107 104
3 153 110 116
3 159 160 161
3 162 163 164
3 165 166 167
3 168 169 170
3 171 161 160
3 164 172 159
3 165 173 162
3 168 166 174
3 170 169 175
3 171 160 176
3 163 177 172
3 167 178 173
3 166 175 179
3 172 176 160
3 173 180 163
3 167 179 181
3 180 182 177
3 181 183 178
3 175 184 179
3 176 182 185
3 178 186 180
3 181 184 187
3 175 169 188
3 171 176 185
3 185 189 190
3 183 191 186
3 187 192 193
3 188 169 194
3 171 185 190
3 186 189 182
3 187 195 183
3 188 192 184
3 191 196 197
3 192 198 193
3 194 169 199
3 171 190 200
3 191 201 189
3 195 198 196
3 192 199 202
3 189 200 190
3 171 200 203
3 197 204 201
3 198 205 196
3 202 206 207
3 201 203 200
3 196 208 197
3 202 209 198
3 199 169 206
3 209 210 205
3 206 211 207
3 204 212 203
3 205 213 208
3 207 214 209
3 206 169 215
3 171 203 212
3 208 216 204
3 216 161 212
3 210 164 213
3 214 174 165
3 215 169 168
3 171 212 161
3 216 164 159
3 214 162 210
3 215 174 211
3 217 218 219
3 220 221 222
3 223 224 225
3 226 227 228
3 229 219 218
3 222 230 217
3 220 225 231
3 226 224 232
3 228 227 233
3 229 218 234
3 221 235 230
3 225 236 231
3 228 237 224
3 230 234 218
3 231 238 221
3 225 237 239
3 238 240 235
3 239 241 236
3 237 242 243
3 234 240 244
3 236 245 238
3 239 243 246
3 233 227 242
3 229 234 244
3 244 247 248
3 241 249 245
3 243 250 246
3 242 227 251
3 229 244 248
3 240 249 247
3 246 252 241
3 242 253 243
3 249 254 255
3 253 256 250
3 251 227 257
3 229 248 258
3 247 255 259
3 250 254 252
3 253 257 260
3 247 258 248
3 229 258 261
3 255 262 259
3 256 263 254
3 260 264 265
3 259 261 258
3 254 266 255
3 260 267 256
3 257 227 264
3 263 268 269
3 264 270 265
3 262 271 261
3 266 269 272
3 265 268 267
3 264 227 273
3 229 261 271
3 266 274 262
3 274 219 271
3 272 220 222
3 270 223 268
3 273 227 226
3 229 271 219
3 274 222 217
3 269 223 220
3 273 232 270
3 43 56 44
3 46 57 47
3 49 58 50
3 48 47 44
3 51 50 57
3 52 54 58
3 47 64 61
3 50 65 62
3 54 59 63
3 45 44 61
3 57 62 64
3 50 58 63
3 61 64 66
3 62 65 68
3 59 72 70
3 60 61 67
3 62 69 66
3 65 63 70
3 71 67 73
3 69 79 75
3 68 70 76
3 66 75 73
3 68 77 79
3 72 78 76
3 79 85 80
3 76 86 81
3 75 80 84
3 77 81 85
3 76 78 82
3 73 84 83
3 84 80 88
3 85 81 90
3 82 93 92
3 83 84 89
3 85 91 88
3 86 92 90
3 91 90 94
3 93 99 96
3 89 100 97
3 88 91 95
3 92 96 94
3 89 88 98
3 97 100 56
3 95 46 48
3 96 49 51
3 100 98 48
3 95 94 51
3 99 52 49
3 101 114 102
3 104 115 105
3 107 116 108
3 106 105 114
3 107 109 115
3 116 110 112
3 105 122 119
3 109 123 120
3 108 112 117
3 114 119 118
3 115 120 122
3 109 108 121
3 122 129 124
3 120 123 125
3 117 130 127
3 118 119 124
3 120 126 129
3 123 121 127
3 128 124 131
3 126 136 133
3 127 137 134
3 124 129 133
3 125 134 136
3 130 135 137
3 133 136 138
3 137 144 140
3 131 133 139
3 136 134 140
3 135 141 144
3 131 143 142
3 143 139 146
3 138 140 148
3 144 141 150
3 143 147 145
3 138 149 146
3 144 151 148
3 148 156 152
3 150 157 153
3 147 158 154
3 149 152 155
3 151 153 156
3 147 146 155
3 158 101 103
3 152 104 106
3 153 116 107
3 155 106 101
3 152 156 107
3 153 157 110
3 159 172 160
3 162 173 163
3 165 174 166
3 164 163 172
3 165 167 173
3 168 170 166
3 163 180 177
3 167 181 178
3 166 170 175
3 172 177 176
3 173 178 180
3 167 166 179
3 180 186 182
3 181 187 183
3 175 188 184
3 176 177 182
3 178 183 186
3 181 179 184
3 185 182 189
3 183 195 191
3 187 184 192
3 186 191 189
3 187 193 195
3 188 194 192
3 191 195 196
3 192 202 198
3 191 197 201
3 195 193 198
3 192 194 199
3 189 201 200
3 197 208 204
3 198 209 205
3 202 199 206
3 201 204 203
3 196 205 208
3 202 207 209
3 209 214 210
3 206 215 211
3 204 216 212
3 205 210 213
3 207 211 214
3 208 213 216
3 216 159 161
3 210 162 164
3 214 211 174
3 216 213 164
3 214 165 162
3 215 168 174
3 217 230 218
3 220 231 221
3 223 232 224
3 222 221 230
3 220 223 225
3 226 228 224
3 221 238 235
3 225 239 236
3 228 233 237
3 230 235 234
3 231 236 238
3 225 224 237
3 238 245 240
3 239 246 241
3 237 233 242
3 234 235 240
3 236 241 245
3 239 237 243
3 244 240 247
3 241 252 249
3 243 253 250
3 240 245 249
3 246 250 252
3 242 251 253
3 249 252 254
3 253 260 256
3 247 249 255
3 250 256 254
3 253 251 257
3 247 259 258
3 255 266 262
3 256 267 263
3 260 257 264
3 259 262 261
3 254 263 266
3 260 265 267
3 263 267 268
3 264 273 270
3 262 274 271
3 266 263 269
3 265 270 268
3 266 272 274
3 274 217 219
3 272 269 220
3 270 232 223
3 274 272 222
3 269 268 223
3 273 226 232
