ply
format ascii 1.0
comment Created by Blender 3.0.1 - www.blender.org
element vertex 24
property float x
property float y
property float z
property uchar red
property uchar green
property uchar blue
property uchar alpha
element face 44
property list uchar uint vertex_indices
end_header
0.490818 2.699102 -0.490818 255 253 254 255
-1.000000 2.000000 -1.000000 19 254 255 255
-0.490818 2.699102 -0.490818 255 253 254 255
1.000000 2.000000 1.000000 19 254 255 255
-0.579181 0.000000 0.579181 19 254 255 255
0.579181 0.000000 0.579181 19 254 255 255
-1.000000 2.000000 1.000000 43 254 255 255
-0.579181 0.000000 -0.579181 19 254 255 255
0.579181 0.000000 -0.579181 19 254 255 255
1.000000 2.000000 -1.000000 20 254 255 255
-0.490818 2.699102 0.490818 255 253 254 255
-0.107763 5.865528 0.107763 28 255 71 255
-0.053160 6.053751 -0.053160 29 255 0 255
-0.107763 5.865528 -0.107763 29 255 3 255
0.490818 2.699102 0.490818 255 253 254 255
-0.107763 5.677305 0.107763 29 255 9 255
0.107763 5.677305 0.107763 29 255 0 255
0.107763 5.677305 -0.107763 29 255 46 255
-0.107763 5.677305 -0.107763 27 255 118 255
0.053160 6.053751 0.053160 29 255 0 255
0.053160 6.053751 -0.053160 29 255 0 255
0.107763 5.865528 -0.107763 29 255 15 255
0.107763 5.865528 0.107763 29 255 0 255
-0.053160 6.053751 0.053160 29 255 0 255
3 0 1 2
3 3 4 5
3 6 7 4
3 8 4 7
3 9 5 8
3 1 8 7
3 2 6 10
3 11 12 13
3 10 3 14
3 15 14 16
3 16 0 17
3 18 10 15
3 17 2 18
3 14 9 0
3 12 19 20
3 21 19 22
3 22 23 11
3 13 20 21
3 18 21 17
3 16 11 15
3 17 22 16
3 15 13 18
3 0 9 1
3 3 6 4
3 6 1 7
3 8 5 4
3 9 3 5
3 1 9 8
3 2 1 6
3 11 23 12
3 10 6 3
3 15 10 14
3 16 14 0
3 18 2 10
3 17 0 2
3 14 3 9
3 12 23 19
3 21 20 19
3 22 19 23
3 13 12 20
3 18 13 21
3 16 22 11
3 17 21 22
3 15 11 13
