ply
format ascii 1.0
comment Created by Blender 3.0.1 - www.blender.org
element vertex 60
property float x
property float y
property float z
property float nx
property float ny
property float nz
property float s
property float t
property uchar red
property uchar green
property uchar blue
property uchar alpha
element face 28
property list uchar uint vertex_indices
end_header
-0.199931 2.346485 2.346485 -1.000000 0.000000 0.000000 0.182483 0.517468 255 149 53 255
-0.199931 -2.346485 -2.346485 -1.000000 0.000000 0.000000 0.075520 0.410505 255 149 52 255
-0.199931 -2.346485 2.346485 -1.000000 0.000000 0.000000 0.182483 0.410505 255 149 52 255
-0.199931 2.346485 -2.346485 0.000000 0.000000 -1.000000 0.075520 0.517468 255 149 52 255
0.199931 -2.346485 -2.346485 0.000000 0.000000 -1.000000 0.075520 0.410505 255 149 52 255
-0.199931 -2.346485 -2.346485 0.000000 0.000000 -1.000000 0.075520 0.410505 255 149 52 255
0.199931 -2.346485 2.346485 0.911086 0.000000 -0.412217 0.075520 0.517468 255 149 52 255
0.082863 2.087740 2.087740 0.911086 0.000000 -0.412217 0.081418 0.618534 255 150 55 255
0.199931 2.346485 2.346485 0.911086 0.000000 -0.412217 0.075520 0.624431 255 149 52 255
0.199931 2.346485 2.346485 0.000000 -0.000000 1.000000 0.182483 0.517468 255 149 52 255
-0.199931 -2.346485 2.346485 0.000000 -0.000000 1.000000 0.182483 0.410505 255 149 52 255
0.199931 -2.346485 2.346485 0.000000 -0.000000 1.000000 0.182483 0.410505 255 149 52 255
0.199931 -2.346485 -2.346485 0.000000 -1.000000 0.000000 0.000000 0.000000 255 149 52 255
-0.199931 -2.346485 2.346485 0.000000 -1.000000 0.000000 0.500000 0.000000 255 149 52 255
-0.199931 -2.346485 -2.346485 0.000000 -1.000000 0.000000 0.000000 0.000000 255 149 52 255
-0.199931 2.346485 -2.346485 0.000000 1.000000 -0.000000 0.075520 0.517468 255 149 52 255
0.199931 2.346485 2.346485 0.000000 1.000000 -0.000000 0.182483 0.517468 255 149 52 255
0.199931 2.346485 -2.346485 0.000000 1.000000 -0.000000 0.075520 0.517468 255 149 53 255
0.082863 -2.087740 2.087740 -0.000000 0.000000 1.000000 0.944865 0.000000 255 149 52 255
0.122572 2.087740 2.087740 -0.000000 0.000000 1.000000 0.944865 0.489693 255 255 255 255
0.082863 2.087740 2.087740 -0.000000 0.000000 1.000000 0.944865 0.444865 255 150 55 255
0.199931 -2.346485 -2.346485 0.911086 0.412217 0.000000 0.182483 0.517468 255 149 52 255
0.082863 -2.087740 2.087740 0.911086 0.412217 0.000000 0.081418 0.523366 255 149 52 255
0.199931 -2.346485 2.346485 0.911086 0.412217 0.000000 0.075520 0.517468 255 149 52 255
0.199931 2.346485 2.346485 0.911086 -0.412217 0.000000 0.075520 0.624431 255 149 52 255
0.082863 2.087740 -2.087740 0.911086 -0.412217 0.000000 0.176586 0.618534 255 149 52 255
0.199931 2.346485 -2.346485 0.911086 -0.412217 0.000000 0.182483 0.624431 255 149 53 255
0.199931 2.346485 -2.346485 0.911086 0.000000 0.412217 0.182483 0.624431 255 149 53 255
0.082863 -2.087740 -2.087740 0.911086 0.000000 0.412217 0.176586 0.523366 255 150 57 255
0.199931 -2.346485 -2.346485 0.911086 0.000000 0.412217 0.182483 0.517468 255 149 52 255
0.122572 2.087740 -2.087740 1.000000 -0.000000 0.000000 0.708448 0.934832 255 255 255 255
0.122572 -2.087740 2.087740 1.000000 -0.000000 0.000000 0.224517 0.531354 255 255 255 255
0.122572 -2.087740 -2.087740 1.000000 -0.000000 0.000000 0.708448 0.531354 255 255 255 255
0.082863 -2.087740 -2.087740 0.000000 -1.000000 -0.000000 0.500000 0.000000 255 150 57 255
0.122572 -2.087740 2.087740 0.000000 -1.000000 -0.000000 0.944865 0.000000 255 255 255 255
0.082863 -2.087740 2.087740 0.000000 -1.000000 -0.000000 0.944865 0.000000 255 149 52 255
0.082863 2.087740 2.087740 0.000000 1.000000 -0.000000 0.936791 0.457590 255 150 55 255
0.122572 2.087740 -2.087740 0.000000 1.000000 -0.000000 0.870757 0.457590 255 255 255 255
0.082863 2.087740 -2.087740 0.000000 1.000000 -0.000000 0.870757 0.464244 255 149 52 255
0.082863 2.087740 -2.087740 0.000000 0.000000 -1.000000 0.920068 0.489693 255 149 52 255
0.122572 -2.087740 -2.087740 0.000000 0.000000 -1.000000 0.920068 0.000000 255 255 255 255
0.082863 -2.087740 -2.087740 0.000000 0.000000 -1.000000 0.920068 0.000000 255 150 57 255
-0.199931 2.346485 -2.346485 -1.000000 0.000000 0.000000 0.075520 0.517468 255 149 52 255
0.199931 2.346485 -2.346485 0.000000 0.000000 -1.000000 0.075520 0.517468 255 149 53 255
0.199931 -2.346485 2.346485 0.911086 0.000000 -0.412217 0.000000 0.500000 255 149 52 255
0.082863 -2.087740 2.087740 0.911086 0.000000 -0.412217 0.027567 0.527567 255 149 52 255
0.082863 2.087740 2.087740 0.911086 0.000000 -0.412217 0.027567 0.972433 255 150 55 255
-0.199931 2.346485 2.346485 0.000000 0.000000 1.000000 0.182483 0.517468 255 149 53 255
0.199931 -2.346485 2.346485 0.000000 -1.000000 0.000000 0.500000 0.000000 255 149 52 255
-0.199931 2.346485 2.346485 0.000000 1.000000 0.000000 0.182483 0.517468 255 149 53 255
0.122572 -2.087740 2.087740 0.000000 0.000000 1.000000 0.944865 0.000000 255 255 255 255
0.082863 -2.087740 -2.087740 0.911086 0.412217 0.000000 0.176586 0.523366 255 150 57 255
0.082863 2.087740 2.087740 0.911086 -0.412217 0.000000 0.081418 0.618534 255 150 55 255
0.082863 2.087740 -2.087740 0.911086 -0.000000 0.412217 0.176586 0.618534 255 149 52 255
0.122572 2.087740 2.087740 1.000000 -0.000000 0.000000 0.224517 0.934832 255 255 255 255
0.122572 -2.087740 -2.087740 -0.000000 -1.000000 -0.000000 0.500000 0.000000 255 255 255 255
0.122572 2.087740 2.087740 0.000000 1.000000 -0.000000 0.936791 0.464244 255 255 255 255
0.082863 2.087740 -2.087740 0.000000 0.000000 -1.000000 0.926955 0.489693 255 149 52 255
0.122572 2.087740 -2.087740 0.000000 0.000000 -1.000000 0.926955 0.444865 255 255 255 255
0.122572 -2.087740 -2.087740 0.000000 0.000000 -1.000000 0.926955 0.000000 255 255 255 255
3 0 1 2
3 3 4 5
3 6 7 8
3 9 10 11
3 12 13 14
3 15 16 17
3 18 19 20
3 21 22 23
3 24 25 26
3 27 28 29
3 30 31 32
3 33 34 35
3 36 37 38
3 39 40 41
3 0 42 1
3 3 43 4
3 44 45 46
3 9 47 10
3 12 48 13
3 15 49 16
3 18 50 19
3 21 51 22
3 24 52 25
3 27 53 28
3 30 54 31
3 33 55 34
3 36 56 37
3 57 58 59
