ply
format ascii 1.0
comment Created in Blender version 4.1.0
element vertex 20
property float x
property float y
property float z
property float nx
property float ny
property float nz
property uchar red
property uchar green
property uchar blue
property uchar alpha
property float s
property float t
element face 36
property list uchar uint vertex_indices
end_header
1 1 -1 0.57733184 0.57738715 -0.57733184 0 254 254 255 0 0
1 0.5 1 0.7071068 0 0.7071068 246 136 254 255 0 0
1 0.5 -1 0.7071068 0 -0.7071068 246 136 254 255 0 0
-1 0.5 1 -0.7071068 0 0.7071068 246 136 254 255 0 0
-1 1 -1 -0.5773352 0.57735777 -0.57735777 0 254 254 255 0 0
-1 0.5 -1 -0.7071068 0 -0.7071068 247 137 254 255 0 0
-1 1 1 -0.57734686 0.57737964 0.57732433 0 254 254 255 0 0
1 1 1 0.57735026 0.57735026 0.57735026 0 254 254 255 0 0
1 -1 -1 0.57733935 -0.5773721 -0.57733935 0 235 254 255 0 0
-1 -1 1 -0.5773244 -0.5773796 0.57734686 0 254 254 255 0 0
-1 -1 -1 -0.57735777 -0.57735777 -0.5773353 0 253 254 255 0 0
1 -0.00011909008 1 0.7071068 0 0.7071068 254 254 254 255 0 0
-1 -0.00011909008 1 -0.7071068 0 0.7071068 254 254 254 255 0 0
-1 -0.00011909008 -1 -0.7071068 0 -0.7071068 254 254 254 255 0 0
1 -0.00011909008 -1 0.7071068 0 -0.7071068 254 254 254 255 0 0
1 -0.5002382 -1 0.70710677 0 -0.70710677 246 143 254 255 0 0
1 -1 1 0.57734275 -0.5773653 0.57734275 0 254 254 255 0 0
-1 -0.5002382 -1 -0.70710677 0 -0.7071067 246 136 254 255 0 0
-1 -0.5002382 1 -0.7071067 0 0.70710677 246 137 254 255 0 0
1 -0.5002382 1 0.7071068 0 0.7071068 246 136 254 255 0 0
3 0 1 2
3 3 4 5
3 0 6 7
3 8 9 10
3 5 0 2
3 1 6 3
3 11 3 12
3 13 2 14
3 12 5 13
3 2 11 14
3 15 16 8
3 9 17 10
3 10 15 8
3 16 18 9
3 14 19 15
3 18 13 17
3 17 14 15
3 19 12 18
3 0 7 1
3 3 6 4
3 0 4 6
3 8 16 9
3 5 4 0
3 1 7 6
3 11 1 3
3 13 5 2
3 12 3 5
3 2 1 11
3 15 19 16
3 9 18 17
3 10 17 15
3 16 19 18
3 14 11 19
3 18 12 13
3 17 13 14
3 19 11 12
